<svg width="32" height="14" viewBox="0 0 32 14" fill="none" xmlns="http://www.w3.org/2000/svg">
<path d="M31.7944 6.01522C32.1592 5.18766 31.9604 3.96897 31.7944 3.06089C31.6653 2.28857 31.345 1.65144 30.8653 1.09133C30.3857 0.531216 29.6762 0.266287 29.0072 0.10655C28.4762 -0.030617 27.678 -0.0403334 27.149 0.10655C26.62 0.253433 26.6382 0.690601 26.2199 1.09133C25.1774 2.04183 23.8332 2.10917 22.5036 2.07611H9.49642C8.16681 2.10917 6.82261 2.04183 5.78009 1.09133C5.36184 0.690601 5.38001 0.253433 4.85101 0.10655C4.322 -0.0403334 3.52381 -0.030617 2.99284 0.10655C2.32383 0.266287 1.61433 0.531216 1.13468 1.09133C0.655025 1.65144 0.334742 2.28857 0.205595 3.06089C0.0395674 3.96897 -0.159162 5.18766 0.205595 6.01522C0.337797 6.31313 1.13468 6.66548 1.13468 7C1.13468 7.33452 0.337797 7.68687 0.205595 7.98478C-0.158407 8.81261 0.0403576 10.031 0.205595 10.9391C0.335077 11.7118 0.655162 12.3477 1.13468 12.9087C1.61419 13.4696 2.32372 13.7319 2.99284 13.8935C3.52381 14.0306 4.322 14.0403 4.85101 13.8935C5.38001 13.7466 5.36184 13.3094 5.78009 12.9087C6.82215 11.9566 8.16628 11.8929 9.49642 11.9239H22.5036C23.8337 11.8929 25.1779 11.9566 26.2199 12.9087C26.6382 13.3094 26.62 13.7466 27.149 13.8935C27.678 14.0403 28.4762 14.0306 29.0072 13.8935C29.6763 13.7319 30.3858 13.4696 30.8653 12.9087C31.3448 12.3477 31.6649 11.7118 31.7944 10.9391C31.9596 10.031 32.1584 8.81261 31.7944 7.98478C31.6622 7.68687 30.8653 7.33452 30.8653 7C30.8653 6.66548 31.6622 6.31313 31.7944 6.01522Z" fill="#FFAA00"/>
</svg>
