<svg width="34" height="34" viewBox="0 0 34 34" fill="none" xmlns="http://www.w3.org/2000/svg">
<path d="M33.25 17C33.25 13.7861 32.297 10.6443 30.5114 7.97199C28.7258 5.29969 26.1879 3.21689 23.2186 1.98696C20.2493 0.757041 16.982 0.435237 13.8298 1.06225C10.6776 1.68926 7.78213 3.23692 5.50952 5.50952C3.23692 7.78213 1.68926 10.6776 1.06225 13.8298C0.435237 16.982 0.757041 20.2493 1.98696 23.2186C3.21689 26.1879 5.29969 28.7258 7.97199 30.5114C10.6443 32.297 13.7861 33.25 17 33.25C21.3085 33.2459 25.4394 31.5325 28.4859 28.4859C31.5325 25.4394 33.2459 21.3085 33.25 17ZM18.25 30.6875V20.75H22C22.3315 20.75 22.6495 20.6183 22.8839 20.3839C23.1183 20.1495 23.25 19.8315 23.25 19.5C23.25 19.1685 23.1183 18.8505 22.8839 18.6161C22.6495 18.3817 22.3315 18.25 22 18.25H18.25V14.5C18.25 13.837 18.5134 13.2011 18.9822 12.7322C19.4511 12.2634 20.087 12 20.75 12H23.25C23.5815 12 23.8995 11.8683 24.1339 11.6339C24.3683 11.3995 24.5 11.0815 24.5 10.75C24.5 10.4185 24.3683 10.1005 24.1339 9.86612C23.8995 9.6317 23.5815 9.50001 23.25 9.50001H20.75C19.4252 9.50413 18.1558 10.0322 17.219 10.969C16.2822 11.9058 15.7541 13.1752 15.75 14.5V18.25H12C11.6685 18.25 11.3505 18.3817 11.1161 18.6161C10.8817 18.8505 10.75 19.1685 10.75 19.5C10.75 19.8315 10.8817 20.1495 11.1161 20.3839C11.3505 20.6183 11.6685 20.75 12 20.75H15.75V30.6875C12.2262 30.3658 8.96214 28.6981 6.63663 26.0312C4.31112 23.3643 3.10325 19.9035 3.26425 16.3688C3.42525 12.834 4.94274 9.49743 7.50106 7.05299C10.0594 4.60854 13.4616 3.24444 17 3.24444C20.5384 3.24444 23.9406 4.60854 26.499 7.05299C29.0573 9.49743 30.5748 12.834 30.7358 16.3688C30.8968 19.9035 29.6889 23.3643 27.3634 26.0312C25.0379 28.6981 21.7738 30.3658 18.25 30.6875Z" fill="#FF9F0E"/>
</svg>
