<svg xmlns="http://www.w3.org/2000/svg" aria-hidden="true" overflow="hidden" style="position:absolute;width:0;height:0">
  <defs>
<symbol id="icon-red-lap" viewBox="0 0 32 32">
<path d="M15.796 15.168c-1.318-2.136-3.52-1.602-6.442-2.616-4.258-1.456-6.205 0.318-5.609 2.356 0.542 1.994 3.35 2.484 4.361 4.446 1.146 1.906 0.102 4.441 1.627 5.983 1.471 1.497 4.036 0.842 4.991-3.475 0.619-2.894 2.309-4.457 1.073-6.695z"></path>
<path d="M14.394 9.020c-0.857 2.083-2.701 3.164-4.065 2.524s-1.767-2.935-0.856-4.973c0.857-2.083 2.647-3.209 4.065-2.524s1.713 2.89 0.856 4.973z"></path>
<path d="M20.37 19.808c-2.259-0.396-4.148 0.527-4.271 2.017s1.629 2.967 3.875 3.268c2.259 0.396 4.149-0.527 4.271-2.017s-1.629-2.967-3.875-3.268z"></path>
<path d="M21.125 11.763c-1.787 1.437-4.103 1.586-5.202 0.323s-0.488-3.523 1.299-4.96c1.787-1.437 4.103-1.586 5.202-0.323s0.488 3.523-1.299 4.96z"></path>
<path d="M21.84 12.772c-2.249 0.675-3.54 2.407-2.937 3.911s2.865 2.167 5.114 1.492c2.249-0.675 3.54-2.407 2.937-3.911s-2.865-2.167-5.114-1.492z"></path>
</symbol>
<symbol id="icon-orange-lap" viewBox="0 0 31 32">
<path d="M14.783 15.43c1.626 2.224 3.977 1.167 7.237 1.852 4.76 0.916 6.631-1.411 5.757-3.672-0.847-2.168-3.823-2.232-5.278-4.206s-0.675-5.069-2.453-6.533-4.449-0.203-4.929 4.83c-0.292 3.448-1.872 5.478-0.332 7.73z"></path>
<path d="M17.311 21.977c0.688-2.436 2.548-4.139 4.038-3.608s2.212 2.917 1.465 5.473c-0.688 2.436-2.548 4.139-4.038 3.609s-2.126-2.945-1.465-5.473z"></path>
<path d="M9.502 11.104c2.461 0.016 4.392-1.406 4.352-3.101s-2.059-3.058-4.492-2.983c-2.461-0.016-4.392 1.406-4.352 3.101 0.013 1.603 2.031 2.967 4.492 2.983z"></path>
<path d="M9.695 20.149c1.842-1.982 4.363-2.689 5.603-1.495s0.769 3.833-1.073 5.815-4.363 2.689-5.603 1.495c-1.151-1.223-0.741-3.742 1.073-5.815z"></path>
<path d="M8.973 18.846c2.361-1.249 3.743-3.469 2.958-5.094-0.758-1.535-3.286-1.812-5.736-0.534-2.361 1.249-3.743 3.469-2.958 5.093 0.758 1.535 3.376 1.783 5.736 0.534z"></path>
</symbol>
<symbol id="icon-sir-lap" viewBox="0 0 31 32">
<path d="M15.59 16.009c-2.585 0.573-2.818 3.013-4.86 5.619-2.93 3.812-1.884 6.472 0.314 6.646s3.613-2.507 5.962-2.815c2.292-0.452 4.453 1.578 6.446 0.581 2.021-0.924 2.231-3.856-1.671-6.416-2.616-1.672-3.594-3.942-6.191-3.615z"></path>
<path d="M8.405 15.092c1.694 1.855 2.243 4.274 1.238 5.398-1.074 1.153-3.308 0.582-5.001-1.273s-2.243-4.274-1.238-5.398c1.074-1.153 3.308-0.582 5.001 1.273z"></path>
<path d="M21.375 12.96c-1.103 2.252-0.836 4.617 0.523 5.333s3.38-0.467 4.483-2.719c1.103-2.252 0.836-4.617-0.523-5.333-1.43-0.686-3.451 0.496-4.483 2.719z"></path>
<path d="M13.648 9.536c0.899 2.499 0.301 5.011-1.236 5.563s-3.508-1.065-4.407-3.564c-0.899-2.499-0.301-5.011 1.236-5.563s3.508 1.065 4.407 3.564z"></path>
<path d="M15.133 8.981c-0.060 2.521 1.2 4.493 2.739 4.497 1.608-0.025 2.926-2.022 3.013-4.474 0.060-2.521-1.2-4.493-2.739-4.497-1.566-0.073-2.953 1.953-3.013 4.474z"></path>
</symbol>
<symbol id="icon-less-lap1" viewBox="0 0 34 32">
<path d="M16.99 14.895c1.374-2.092 3.707-1.547 6.788-2.519 4.489-1.396 6.563 0.368 5.953 2.372-0.555 1.96-3.519 2.417-4.571 4.341-1.194 1.867-0.067 4.374-1.665 5.879-1.542 1.462-4.26 0.794-5.309-3.468-0.681-2.856-2.482-4.411-1.195-6.604z"></path>
<path d="M18.489 8.891c0.96 2.096 2.947 3.215 4.384 2.608s1.812-2.886 0.796-4.938c-0.96-2.096-2.891-3.259-4.384-2.608s-1.757 2.842-0.796 4.938z"></path>
<path d="M12.349 19.595c2.391-0.418 4.373 0.453 4.48 1.904s-1.764 2.916-4.14 3.242c-2.391 0.418-4.373-0.453-4.48-1.904s1.764-2.916 4.14-3.242z"></path>
<path d="M11.696 11.852c1.975 1.502 4.497 1.705 5.664 0.443s0.452-3.576-1.523-5.078-4.497-1.705-5.664-0.443c-1.167 1.262-0.452 3.576 1.523 5.078z"></path>
<path d="M11.029 12.394c2.363 0.702 3.745 2.419 3.144 3.877s-2.952 2.064-5.315 1.363c-2.363-0.702-3.745-2.419-3.144-3.877s2.952-2.065 5.315-1.363z"></path>
</symbol>
<symbol id="icon-less-lap2" viewBox="0 0 35 32">
<path d="M16.323 15.792c-2.716 0.52-2.978 2.843-5.12 5.316-3.1 3.61-1.975 6.125 0.372 6.27 2.28 0.181 3.833-2.366 6.255-2.651 2.412-0.435 4.666 1.474 6.84 0.543 2.107-0.896 2.378-3.613-1.768-6.067-2.786-1.625-3.787-3.816-6.579-3.411z"></path>
<path d="M9.817 15.013c1.878 1.613 2.35 3.821 1.187 4.92s-3.716 0.642-5.528-1.006c-1.878-1.613-2.417-3.785-1.187-4.92s3.65-0.607 5.528 1.006z"></path>
<path d="M22.939 12.993c-1.306 2.037-1.095 4.154 0.406 4.761s3.731-0.588 4.933-2.644c1.306-2.037 1.095-4.154-0.406-4.761s-3.731 0.588-4.933 2.644z"></path>
<path d="M15.26 9.402c0.883 2.331 0.188 4.706-1.571 5.329s-3.958-0.843-4.841-3.174c-0.883-2.331-0.188-4.706 1.571-5.329s3.958 0.843 4.841 3.174z"></path>
<path d="M15.848 8.926c-0.107 2.405 1.218 4.27 2.982 4.233s3.255-1.972 3.362-4.377c0.107-2.405-1.218-4.27-2.982-4.233s-3.255 1.972-3.362 4.377z"></path>
</symbol>
<symbol id="icon-less-lap3" viewBox="0 0 34 32">
<path d="M16.991 15.097c-1.373-2.090-3.856-1.656-6.934-2.628-4.484-1.396-6.32 0.531-5.709 2.532 0.555 1.957 3.663 2.468 4.714 4.391 1.194 1.865-0.309 4.406 1.288 5.91 1.541 1.46 4.177 0.644 5.223-3.613 0.679-2.852 2.704-4.401 1.418-6.592z"></path>
<path d="M15.635 9.269c-0.958 2.093-3.069 3.383-4.504 2.776s-2.239-3.111-1.225-5.16c0.958-2.093 3.013-3.426 4.504-2.776s2.183 3.068 1.225 5.16z"></path>
<path d="M21.527 20.232c-2.389-0.419-4.101 0.158-4.208 1.607s1.431 2.653 3.805 2.979c2.389 0.419 4.101-0.158 4.208-1.607s-1.431-2.653-3.805-2.979z"></path>
<path d="M22.249 12.296c-1.972 1.5-4.733 1.544-5.899 0.283s-0.427-3.593 1.545-5.093c1.972-1.5 4.733-1.544 5.899-0.283s0.427 3.593-1.545 5.093z"></path>
<path d="M23.066 12.628c-2.36 0.7-4.196 2.731-3.595 4.187s2.883 2.005 5.243 1.304c2.36-0.7 4.196-2.731 3.595-4.187s-2.883-2.005-5.243-1.304z"></path>
</symbol>
</defs>
</svg>