<svg width="34" height="34" viewBox="0 0 34 34" fill="none" xmlns="http://www.w3.org/2000/svg">
<path d="M17 23.6667C18.7681 23.6667 20.4638 22.9643 21.714 21.7141C22.9643 20.4638 23.6666 18.7682 23.6666 17C23.6666 15.2319 22.9643 13.5362 21.714 12.286C20.4638 11.0358 18.7681 10.3334 17 10.3334C15.2319 10.3334 13.5362 11.0358 12.2859 12.286C11.0357 13.5362 10.3333 15.2319 10.3333 17C10.3333 18.7682 11.0357 20.4638 12.2859 21.7141C13.5362 22.9643 15.2319 23.6667 17 23.6667Z" stroke="#FF9F0E" stroke-width="2.625" stroke-linecap="round" stroke-linejoin="round"/>
<path d="M2 23.6667V10.3333C2 8.1232 2.87797 6.00358 4.44078 4.44078C6.00358 2.87797 8.1232 2 10.3333 2H23.6667C25.8768 2 27.9964 2.87797 29.5592 4.44078C31.122 6.00358 32 8.1232 32 10.3333V23.6667C32 25.8768 31.122 27.9964 29.5592 29.5592C27.9964 31.122 25.8768 32 23.6667 32H10.3333C8.1232 32 6.00358 31.122 4.44078 29.5592C2.87797 27.9964 2 25.8768 2 23.6667Z" stroke="#FF9F0E" stroke-width="2.625"/>
<path d="M26.1667 7.85092L26.1842 7.83167" stroke="#FF9F0E" stroke-width="2.625" stroke-linecap="round" stroke-linejoin="round"/>
</svg>
