<svg width="40" height="40" viewBox="0 0 40 40" fill="none" xmlns="http://www.w3.org/2000/svg">
<path d="M20 26.6667C21.7681 26.6667 23.4638 25.9643 24.714 24.7141C25.9643 23.4638 26.6666 21.7682 26.6666 20C26.6666 18.2319 25.9643 16.5362 24.714 15.286C23.4638 14.0358 21.7681 13.3334 20 13.3334C18.2319 13.3334 16.5362 14.0358 15.2859 15.286C14.0357 16.5362 13.3333 18.2319 13.3333 20C13.3333 21.7682 14.0357 23.4638 15.2859 24.7141C16.5362 25.9643 18.2319 26.6667 20 26.6667Z" stroke="#FF9F0E" stroke-width="2.625" stroke-linecap="round" stroke-linejoin="round"/>
<path d="M5 26.6667V13.3333C5 11.1232 5.87797 9.00358 7.44078 7.44078C9.00358 5.87797 11.1232 5 13.3333 5H26.6667C28.8768 5 30.9964 5.87797 32.5592 7.44078C34.122 9.00358 35 11.1232 35 13.3333V26.6667C35 28.8768 34.122 30.9964 32.5592 32.5592C30.9964 34.122 28.8768 35 26.6667 35H13.3333C11.1232 35 9.00358 34.122 7.44078 32.5592C5.87797 30.9964 5 28.8768 5 26.6667Z" stroke="#FF9F0E" stroke-width="2.625"/>
<path d="M29.1667 10.8509L29.1842 10.8317" stroke="#FF9F0E" stroke-width="2.625" stroke-linecap="round" stroke-linejoin="round"/>
</svg>
