<svg width="182" height="43" viewBox="0 0 182 43" fill="none" xmlns="http://www.w3.org/2000/svg">
<path d="M20.9067 24.9364C21.1506 29.8966 24.7507 30.5288 28.1069 34.6967C33.0723 40.6549 37.0674 38.8854 37.7461 34.5878C38.3877 30.4588 34.8962 27.5121 34.6656 23.0986C34.435 18.6851 37.717 14.6945 36.7149 10.7523C35.7128 6.81016 31.5772 6.18396 27.1791 13.4257C24.2099 18.4221 20.7874 20.0169 20.9067 24.9364Z" fill="#FCB62A"/>
<path d="M13.398 12.7094C16.2091 14.9927 19.5552 14.1777 20.7453 11.6641C21.9354 9.15048 20.4972 4.74322 17.651 2.61928C14.8399 0.336067 11.4937 1.151 10.3036 3.66463C9.14857 6.01898 10.5868 10.4262 13.398 12.7094Z" fill="#FF9F0E"/>
<path d="M6.44751 25.4381C9.76275 25.6149 12.7786 23.3419 13.1492 20.025C13.4826 16.8768 11.0971 14.1082 7.6701 13.8948C4.35486 13.718 1.33903 15.991 0.968443 19.3079C0.635011 22.4561 3.13228 25.2612 6.44751 25.4381Z" fill="#FCB62A"/>
<path d="M8.02448 41.2664C11.0372 41.3319 14.0455 38.7511 14.4587 35.3999C14.8342 32.2198 12.9043 28.665 9.79067 28.5665C6.77793 28.501 3.76961 31.0817 3.35645 34.433C2.98096 37.6131 5.01174 41.2008 8.02448 41.2664Z" fill="#FFAA00"/>
<path d="M47.5648 33.5V15.996L46.9248 12.796L47.5648 10.844H57.1008C58.6368 10.844 60.1088 10.9933 61.5168 11.292C62.9461 11.5693 64.2154 12.1027 65.3248 12.892C66.4554 13.6813 67.3408 14.812 67.9808 16.284C68.6421 17.756 68.9728 19.6653 68.9728 22.012C68.9728 24.3587 68.6421 26.2893 67.9808 27.804C67.3194 29.2973 66.4234 30.46 65.2928 31.292C64.1621 32.124 62.8821 32.7 61.4528 33.02C60.0448 33.34 58.5941 33.5 57.1008 33.5H47.5648ZM53.3888 28.38H57.1008C58.9781 28.38 60.4181 27.8893 61.4208 26.908C62.4234 25.9053 62.9248 24.2733 62.9248 22.012C62.9248 19.7507 62.4128 18.1827 61.3888 17.308C60.3861 16.412 58.9568 15.964 57.1008 15.964H53.3888V28.38ZM82.3828 33.82C81.0174 33.82 79.6841 33.66 78.3828 33.34C77.1028 32.9987 75.9401 32.4013 74.8948 31.548C73.8708 30.6947 73.0494 29.5107 72.4308 27.996C71.8334 26.4813 71.5348 24.54 71.5348 22.172C71.5348 19.804 71.8334 17.8627 72.4308 16.348C73.0494 14.8333 73.8708 13.6493 74.8948 12.796C75.9401 11.9427 77.1028 11.356 78.3828 11.036C79.6841 10.6947 81.0174 10.524 82.3828 10.524C83.7481 10.524 85.0708 10.6947 86.3508 11.036C87.6521 11.3773 88.8148 11.9747 89.8388 12.828C90.8841 13.6813 91.7054 14.8653 92.3028 16.38C92.9214 17.8947 93.2308 19.8253 93.2308 22.172C93.2308 24.5187 92.9214 26.4493 92.3028 27.964C91.7054 29.4787 90.8841 30.6627 89.8388 31.516C88.8148 32.3693 87.6521 32.9667 86.3508 33.308C85.0708 33.6493 83.7481 33.82 82.3828 33.82ZM82.3828 28.38C83.9614 28.38 85.1561 27.9107 85.9668 26.972C86.7774 26.0333 87.1828 24.4333 87.1828 22.172C87.1828 19.9107 86.7774 18.3107 85.9668 17.372C85.1561 16.4333 83.9614 15.964 82.3828 15.964C80.8254 15.964 79.6414 16.444 78.8308 17.404C78.0201 18.364 77.6148 19.9533 77.6148 22.172C77.6148 24.3907 78.0201 25.98 78.8308 26.94C79.6414 27.9 80.8254 28.38 82.3828 28.38ZM107.913 33.82C106.27 33.82 104.713 33.66 103.241 33.34C101.79 32.9987 100.499 32.4013 99.3688 31.548C98.2594 30.6947 97.3848 29.5107 96.7448 27.996C96.1048 26.4813 95.7848 24.54 95.7848 22.172C95.7848 19.8893 96.1261 18.0013 96.8088 16.508C97.4914 14.9933 98.3981 13.7987 99.5288 12.924C100.681 12.0493 101.95 11.4307 103.337 11.068C104.745 10.7053 106.163 10.524 107.593 10.524C108.638 10.524 109.545 10.5773 110.313 10.684C111.081 10.7907 111.817 10.9293 112.521 11.1L116.873 13.628L114.633 18.588L107.561 16.092C106.537 16.092 105.587 16.2947 104.713 16.7C103.859 17.1053 103.166 17.756 102.633 18.652C102.121 19.5267 101.865 20.7107 101.865 22.204C101.865 24.6147 102.398 26.3107 103.465 27.292C104.553 28.252 106.035 28.732 107.913 28.732C108.873 28.732 109.619 28.6893 110.153 28.604C110.707 28.4973 111.134 28.412 111.433 28.348V25.916H107.369V21.18H117.545L117.897 23.1L117.193 25.756V32.476C116.958 32.5613 116.425 32.7107 115.593 32.924C114.782 33.1373 113.715 33.34 112.393 33.532C111.091 33.724 109.598 33.82 107.913 33.82ZM128.336 33.74C127.392 33.74 126.44 33.604 125.48 33.332C124.536 33.06 123.664 32.604 122.864 31.964C122.08 31.308 121.448 30.42 120.968 29.3C120.488 28.164 120.248 26.732 120.248 25.004C120.248 23.26 120.584 21.74 121.256 20.444C121.944 19.132 122.88 18.108 124.064 17.372C125.248 16.636 126.592 16.268 128.096 16.268C128.816 16.268 129.504 16.332 130.16 16.46C130.832 16.588 131.344 16.732 131.696 16.892L134.36 19.316L132.68 21.836L128.576 19.724C127.68 19.724 126.872 19.94 126.152 20.372C125.432 20.804 124.856 21.42 124.424 22.22C124.008 23.004 123.8 23.932 123.8 25.004C123.8 26.236 124.016 27.252 124.448 28.052C124.896 28.852 125.504 29.452 126.272 29.852C127.04 30.236 127.896 30.428 128.84 30.428C129.8 30.428 130.624 30.348 131.312 30.188C132 30.012 132.576 29.82 133.04 29.612C133.504 29.388 133.856 29.196 134.096 29.036V32.3C133.648 32.604 132.96 32.924 132.032 33.26C131.12 33.58 129.888 33.74 128.336 33.74ZM137.144 33.5L136.664 32.06L137.144 29.66V16.508H140.504V26.372L140.264 30.38H140.744L146 30.14L147.704 29.9L149.336 31.964L148.16 33.5H137.144ZM156.825 33.74C155.177 33.74 153.881 33.468 152.937 32.924C152.009 32.38 151.345 31.58 150.945 30.524C150.561 29.452 150.369 28.148 150.369 26.612V20.372L150.393 17.948L150.369 16.508H153.777V26.852C153.777 27.972 154.001 28.884 154.449 29.588C154.897 30.276 155.689 30.62 156.825 30.62C157.961 30.62 158.761 30.3 159.225 29.66C159.705 29.004 159.945 28.068 159.945 26.852V16.508H163.281V26.612C163.281 28.116 163.089 29.404 162.705 30.476C162.337 31.532 161.681 32.34 160.737 32.9C159.809 33.46 158.505 33.74 156.825 33.74ZM166.394 33.5V20.348L165.914 17.948L166.394 16.508H172.634C173.85 16.508 174.898 16.652 175.778 16.94C176.674 17.212 177.37 17.66 177.866 18.284C178.362 18.908 178.61 19.74 178.61 20.78C178.61 21.42 178.498 22.028 178.274 22.604C178.066 23.164 177.706 23.636 177.194 24.02C178.202 24.372 178.97 24.9 179.498 25.604C180.026 26.308 180.29 27.244 180.29 28.412C180.29 30.188 179.794 31.484 178.802 32.3C177.81 33.1 176.314 33.5 174.314 33.5H166.394ZM169.754 23.348H173.066C174.41 23.348 175.082 22.756 175.082 21.572C175.082 20.98 174.946 20.508 174.674 20.156C174.402 19.804 173.866 19.628 173.066 19.628H169.754V23.348ZM169.754 30.38H174.074C174.922 30.38 175.538 30.188 175.922 29.804C176.322 29.42 176.522 28.884 176.522 28.196C176.522 27.54 176.306 27.044 175.874 26.708C175.458 26.372 174.778 26.204 173.834 26.204H169.754V30.38Z" fill="#FF9F0E"/>
</svg>
